<svg xmlns="http://www.w3.org/2000/svg" xmlns:xlink="http://www.w3.org/1999/xlink" viewBox="0 0 83.14 83.14"><defs><style>.cls-1{fill:url(#linear-gradient);}</style><linearGradient id="linear-gradient" y1="41.57" x2="83.14" y2="41.57" gradientUnits="userSpaceOnUse"><stop offset="0" stop-color="#ba89f4"/><stop offset="1" stop-color="#36f2e3"/></linearGradient></defs><title>curvedline</title><g id="Layer_2" data-name="Layer 2"><g id="Layer_1-2" data-name="Layer 1"><path class="cls-1" d="M14,1.16c1.91,1.91,1.07,4.58.27,7.15-.76,2.4-1.47,4.67,0,6.16s3.76.78,6.16,0c2.58-.81,5.24-1.65,7.15.26s1.07,4.58.26,7.15c-.75,2.4-1.47,4.67,0,6.16s3.76.77,6.16,0c2.58-.81,5.24-1.65,7.15.27s1.07,4.57.26,7.15c-.76,2.4-1.47,4.67,0,6.16s3.76.77,6.16,0c2.58-.81,5.24-1.65,7.15.26s1.07,4.58.26,7.15c-.76,2.4-1.47,4.67,0,6.16s3.75.77,6.16,0c2.58-.81,5.24-1.65,7.15.26s1.07,4.57.26,7.15c-.76,2.4-1.47,4.67,0,6.16s3.76.78,6.16,0c2.58-.81,5.24-1.65,7.15.26s1.07,4.57.26,7.15c-.76,2.4-1.47,4.67,0,6.16l-.7.7c-1.91-1.91-1.07-4.57-.26-7.15.76-2.4,1.47-4.67,0-6.16s-3.75-.77-6.16,0c-2.58.81-5.24,1.65-7.15-.27S66.9,65,67.71,62.4c.75-2.4,1.47-4.67,0-6.16s-3.76-.78-6.16,0C59,57,56.29,57.87,54.38,56s-1.07-4.57-.26-7.15c.75-2.4,1.47-4.67,0-6.16s-3.76-.77-6.16,0c-2.58.81-5.24,1.65-7.15-.26s-1.07-4.58-.26-7.15c.75-2.4,1.47-4.67,0-6.16s-3.76-.77-6.16,0c-2.58.81-5.24,1.65-7.15-.26s-1.07-4.58-.26-7.15c.75-2.4,1.47-4.67,0-6.16s-3.76-.78-6.16,0c-2.58.81-5.24,1.65-7.15-.26S12.52,10.6,13.33,8c.75-2.4,1.47-4.67,0-6.16s-3.76-.77-6.16,0C4.58,2.65,1.91,3.49,0,1.58L.7.88c1.49,1.49,3.76.78,6.16,0C9.43.09,12.1-.75,14,1.16Z"/></g></g></svg>