<svg xmlns="http://www.w3.org/2000/svg" width="787" height="584" viewBox="0 0 787 584">
  <metadata><?xpacket begin="﻿" id="W5M0MpCehiHzreSzNTczkc9d"?>
<x:xmpmeta xmlns:x="adobe:ns:meta/" x:xmptk="Adobe XMP Core 5.6-c138 79.159824, 2016/09/14-01:09:01        ">
   <rdf:RDF xmlns:rdf="http://www.w3.org/1999/02/22-rdf-syntax-ns#">
      <rdf:Description rdf:about=""/>
   </rdf:RDF>
</x:xmpmeta>
                                                                                                    
                                                                                                    
                                                                                                    
                                                                                                    
                                                                                                    
                                                                                                    
                                                                                                    
                                                                                                    
                                                                                                    
                                                                                                    
                                                                                                    
                                                                                                    
                                                                                                    
                                                                                                    
                                                                                                    
                                                                                                    
                                                                                                    
                                                                                                    
                                                                                                    
                                                                                                    
                           
<?xpacket end="w"?></metadata>
<defs>
    <style>
      .cls-1 {
        fill: #dcdcdc;
        fill-rule: evenodd;
      }
    </style>
  </defs>
  <path id="Ellipse_1_copy_11" data-name="Ellipse 1 copy 11" class="cls-1" d="M12.5,7A6.5,6.5,0,1,1,6,13.5,6.5,6.5,0,0,1,12.5,7Zm44,0A6.5,6.5,0,1,1,50,13.5,6.5,6.5,0,0,1,56.5,7Zm-44,44A6.5,6.5,0,1,1,6,57.5,6.5,6.5,0,0,1,12.5,51Zm44,0A6.5,6.5,0,1,1,50,57.5,6.5,6.5,0,0,1,56.5,51Zm42-44A6.5,6.5,0,1,1,92,13.5,6.5,6.5,0,0,1,98.5,7Zm44,0a6.5,6.5,0,1,1-6.5,6.5A6.5,6.5,0,0,1,142.5,7Zm-44,44A6.5,6.5,0,1,1,92,57.5,6.5,6.5,0,0,1,98.5,51Zm44,0a6.5,6.5,0,1,1-6.5,6.5A6.5,6.5,0,0,1,142.5,51ZM12.5,95A6.5,6.5,0,1,1,6,101.5,6.5,6.5,0,0,1,12.5,95Zm44,0a6.5,6.5,0,1,1-6.5,6.5A6.5,6.5,0,0,1,56.5,95Zm-44,44A6.5,6.5,0,1,1,6,145.5,6.5,6.5,0,0,1,12.5,139Zm44,0a6.5,6.5,0,1,1-6.5,6.5A6.5,6.5,0,0,1,56.5,139Zm42-44a6.5,6.5,0,1,1-6.5,6.5A6.5,6.5,0,0,1,98.5,95Zm44,0a6.5,6.5,0,1,1-6.5,6.5A6.5,6.5,0,0,1,142.5,95Zm-44,44a6.5,6.5,0,1,1-6.5,6.5A6.5,6.5,0,0,1,98.5,139Zm44,0a6.5,6.5,0,1,1-6.5,6.5A6.5,6.5,0,0,1,142.5,139Zm-130,43A6.5,6.5,0,1,1,6,188.5,6.5,6.5,0,0,1,12.5,182Zm44,0a6.5,6.5,0,1,1-6.5,6.5A6.5,6.5,0,0,1,56.5,182Zm-44,44A6.5,6.5,0,1,1,6,232.5,6.5,6.5,0,0,1,12.5,226Zm44,0a6.5,6.5,0,1,1-6.5,6.5A6.5,6.5,0,0,1,56.5,226Zm42-44a6.5,6.5,0,1,1-6.5,6.5A6.5,6.5,0,0,1,98.5,182Zm44,0a6.5,6.5,0,1,1-6.5,6.5A6.5,6.5,0,0,1,142.5,182Zm-44,44a6.5,6.5,0,1,1-6.5,6.5A6.5,6.5,0,0,1,98.5,226Zm44,0a6.5,6.5,0,1,1-6.5,6.5A6.5,6.5,0,0,1,142.5,226Zm-130,44A6.5,6.5,0,1,1,6,276.5,6.5,6.5,0,0,1,12.5,270Zm44,0a6.5,6.5,0,1,1-6.5,6.5A6.5,6.5,0,0,1,56.5,270Zm-44,44A6.5,6.5,0,1,1,6,320.5,6.5,6.5,0,0,1,12.5,314Zm44,0a6.5,6.5,0,1,1-6.5,6.5A6.5,6.5,0,0,1,56.5,314Zm42-44a6.5,6.5,0,1,1-6.5,6.5A6.5,6.5,0,0,1,98.5,270Zm44,0a6.5,6.5,0,1,1-6.5,6.5A6.5,6.5,0,0,1,142.5,270Zm-44,44a6.5,6.5,0,1,1-6.5,6.5A6.5,6.5,0,0,1,98.5,314Zm44,0a6.5,6.5,0,1,1-6.5,6.5A6.5,6.5,0,0,1,142.5,314Zm-130,44A6.5,6.5,0,1,1,6,364.5,6.5,6.5,0,0,1,12.5,358Zm44,0a6.5,6.5,0,1,1-6.5,6.5A6.5,6.5,0,0,1,56.5,358Zm-44,44A6.5,6.5,0,1,1,6,408.5,6.5,6.5,0,0,1,12.5,402Zm44,0a6.5,6.5,0,1,1-6.5,6.5A6.5,6.5,0,0,1,56.5,402Zm42-44a6.5,6.5,0,1,1-6.5,6.5A6.5,6.5,0,0,1,98.5,358Zm44,0a6.5,6.5,0,1,1-6.5,6.5A6.5,6.5,0,0,1,142.5,358Zm-44,44a6.5,6.5,0,1,1-6.5,6.5A6.5,6.5,0,0,1,98.5,402Zm44,0a6.5,6.5,0,1,1-6.5,6.5A6.5,6.5,0,0,1,142.5,402Zm-130,44A6.5,6.5,0,1,1,6,452.5,6.5,6.5,0,0,1,12.5,446Zm44,0a6.5,6.5,0,1,1-6.5,6.5A6.5,6.5,0,0,1,56.5,446Zm-44,44A6.5,6.5,0,1,1,6,496.5,6.5,6.5,0,0,1,12.5,490Zm44,0a6.5,6.5,0,1,1-6.5,6.5A6.5,6.5,0,0,1,56.5,490Zm42-44a6.5,6.5,0,1,1-6.5,6.5A6.5,6.5,0,0,1,98.5,446Zm44,0a6.5,6.5,0,1,1-6.5,6.5A6.5,6.5,0,0,1,142.5,446Zm-44,44a6.5,6.5,0,1,1-6.5,6.5A6.5,6.5,0,0,1,98.5,490Zm44,0a6.5,6.5,0,1,1-6.5,6.5A6.5,6.5,0,0,1,142.5,490Zm-130,44A6.5,6.5,0,1,1,6,540.5,6.5,6.5,0,0,1,12.5,534Zm44,0a6.5,6.5,0,1,1-6.5,6.5A6.5,6.5,0,0,1,56.5,534Zm-44,44A6.5,6.5,0,1,1,6,584.5,6.5,6.5,0,0,1,12.5,578Zm44,0a6.5,6.5,0,1,1-6.5,6.5A6.5,6.5,0,0,1,56.5,578Zm42-44a6.5,6.5,0,1,1-6.5,6.5A6.5,6.5,0,0,1,98.5,534Zm44,0a6.5,6.5,0,1,1-6.5,6.5A6.5,6.5,0,0,1,142.5,534Zm-44,44a6.5,6.5,0,1,1-6.5,6.5A6.5,6.5,0,0,1,98.5,578Zm44,0a6.5,6.5,0,1,1-6.5,6.5A6.5,6.5,0,0,1,142.5,578Zm42-571a6.5,6.5,0,1,1-6.5,6.5A6.5,6.5,0,0,1,184.5,7Zm44,0a6.5,6.5,0,1,1-6.5,6.5A6.5,6.5,0,0,1,228.5,7Zm-44,44a6.5,6.5,0,1,1-6.5,6.5A6.5,6.5,0,0,1,184.5,51Zm44,0a6.5,6.5,0,1,1-6.5,6.5A6.5,6.5,0,0,1,228.5,51Zm42-44a6.5,6.5,0,1,1-6.5,6.5A6.5,6.5,0,0,1,270.5,7Zm44,0a6.5,6.5,0,1,1-6.5,6.5A6.5,6.5,0,0,1,314.5,7Zm-44,44a6.5,6.5,0,1,1-6.5,6.5A6.5,6.5,0,0,1,270.5,51Zm44,0a6.5,6.5,0,1,1-6.5,6.5A6.5,6.5,0,0,1,314.5,51Zm-130,44a6.5,6.5,0,1,1-6.5,6.5A6.5,6.5,0,0,1,184.5,95Zm44,0a6.5,6.5,0,1,1-6.5,6.5A6.5,6.5,0,0,1,228.5,95Zm-44,44a6.5,6.5,0,1,1-6.5,6.5A6.5,6.5,0,0,1,184.5,139Zm44,0a6.5,6.5,0,1,1-6.5,6.5A6.5,6.5,0,0,1,228.5,139Zm42-44a6.5,6.5,0,1,1-6.5,6.5A6.5,6.5,0,0,1,270.5,95Zm44,0a6.5,6.5,0,1,1-6.5,6.5A6.5,6.5,0,0,1,314.5,95Zm-44,44a6.5,6.5,0,1,1-6.5,6.5A6.5,6.5,0,0,1,270.5,139Zm44,0a6.5,6.5,0,1,1-6.5,6.5A6.5,6.5,0,0,1,314.5,139Zm-130,43a6.5,6.5,0,1,1-6.5,6.5A6.5,6.5,0,0,1,184.5,182Zm44,0a6.5,6.5,0,1,1-6.5,6.5A6.5,6.5,0,0,1,228.5,182Zm-44,44a6.5,6.5,0,1,1-6.5,6.5A6.5,6.5,0,0,1,184.5,226Zm44,0a6.5,6.5,0,1,1-6.5,6.5A6.5,6.5,0,0,1,228.5,226Zm42-44a6.5,6.5,0,1,1-6.5,6.5A6.5,6.5,0,0,1,270.5,182Zm44,0a6.5,6.5,0,1,1-6.5,6.5A6.5,6.5,0,0,1,314.5,182Zm-44,44a6.5,6.5,0,1,1-6.5,6.5A6.5,6.5,0,0,1,270.5,226Zm44,0a6.5,6.5,0,1,1-6.5,6.5A6.5,6.5,0,0,1,314.5,226Zm-130,44a6.5,6.5,0,1,1-6.5,6.5A6.5,6.5,0,0,1,184.5,270Zm44,0a6.5,6.5,0,1,1-6.5,6.5A6.5,6.5,0,0,1,228.5,270Zm-44,44a6.5,6.5,0,1,1-6.5,6.5A6.5,6.5,0,0,1,184.5,314Zm44,0a6.5,6.5,0,1,1-6.5,6.5A6.5,6.5,0,0,1,228.5,314Zm42-44a6.5,6.5,0,1,1-6.5,6.5A6.5,6.5,0,0,1,270.5,270Zm44,0a6.5,6.5,0,1,1-6.5,6.5A6.5,6.5,0,0,1,314.5,270Zm-44,44a6.5,6.5,0,1,1-6.5,6.5A6.5,6.5,0,0,1,270.5,314Zm44,0a6.5,6.5,0,1,1-6.5,6.5A6.5,6.5,0,0,1,314.5,314Zm-130,44a6.5,6.5,0,1,1-6.5,6.5A6.5,6.5,0,0,1,184.5,358Zm44,0a6.5,6.5,0,1,1-6.5,6.5A6.5,6.5,0,0,1,228.5,358Zm-44,44a6.5,6.5,0,1,1-6.5,6.5A6.5,6.5,0,0,1,184.5,402Zm44,0a6.5,6.5,0,1,1-6.5,6.5A6.5,6.5,0,0,1,228.5,402Zm42-44a6.5,6.5,0,1,1-6.5,6.5A6.5,6.5,0,0,1,270.5,358Zm44,0a6.5,6.5,0,1,1-6.5,6.5A6.5,6.5,0,0,1,314.5,358Zm-44,44a6.5,6.5,0,1,1-6.5,6.5A6.5,6.5,0,0,1,270.5,402Zm44,0a6.5,6.5,0,1,1-6.5,6.5A6.5,6.5,0,0,1,314.5,402Zm-130,44a6.5,6.5,0,1,1-6.5,6.5A6.5,6.5,0,0,1,184.5,446Zm44,0a6.5,6.5,0,1,1-6.5,6.5A6.5,6.5,0,0,1,228.5,446Zm-44,44a6.5,6.5,0,1,1-6.5,6.5A6.5,6.5,0,0,1,184.5,490Zm44,0a6.5,6.5,0,1,1-6.5,6.5A6.5,6.5,0,0,1,228.5,490Zm42-44a6.5,6.5,0,1,1-6.5,6.5A6.5,6.5,0,0,1,270.5,446Zm44,0a6.5,6.5,0,1,1-6.5,6.5A6.5,6.5,0,0,1,314.5,446Zm-44,44a6.5,6.5,0,1,1-6.5,6.5A6.5,6.5,0,0,1,270.5,490Zm44,0a6.5,6.5,0,1,1-6.5,6.5A6.5,6.5,0,0,1,314.5,490Zm-130,44a6.5,6.5,0,1,1-6.5,6.5A6.5,6.5,0,0,1,184.5,534Zm44,0a6.5,6.5,0,1,1-6.5,6.5A6.5,6.5,0,0,1,228.5,534Zm-44,44a6.5,6.5,0,1,1-6.5,6.5A6.5,6.5,0,0,1,184.5,578Zm44,0a6.5,6.5,0,1,1-6.5,6.5A6.5,6.5,0,0,1,228.5,578Zm42-44a6.5,6.5,0,1,1-6.5,6.5A6.5,6.5,0,0,1,270.5,534Zm44,0a6.5,6.5,0,1,1-6.5,6.5A6.5,6.5,0,0,1,314.5,534Zm-44,44a6.5,6.5,0,1,1-6.5,6.5A6.5,6.5,0,0,1,270.5,578Zm44,0a6.5,6.5,0,1,1-6.5,6.5A6.5,6.5,0,0,1,314.5,578Zm42-571a6.5,6.5,0,1,1-6.5,6.5A6.5,6.5,0,0,1,356.5,7Zm44,0a6.5,6.5,0,1,1-6.5,6.5A6.5,6.5,0,0,1,400.5,7Zm-44,44a6.5,6.5,0,1,1-6.5,6.5A6.5,6.5,0,0,1,356.5,51Zm44,0a6.5,6.5,0,1,1-6.5,6.5A6.5,6.5,0,0,1,400.5,51Zm42-44a6.5,6.5,0,1,1-6.5,6.5A6.5,6.5,0,0,1,442.5,7Zm44,0a6.5,6.5,0,1,1-6.5,6.5A6.5,6.5,0,0,1,486.5,7Zm-44,44a6.5,6.5,0,1,1-6.5,6.5A6.5,6.5,0,0,1,442.5,51Zm44,0a6.5,6.5,0,1,1-6.5,6.5A6.5,6.5,0,0,1,486.5,51Zm-130,44a6.5,6.5,0,1,1-6.5,6.5A6.5,6.5,0,0,1,356.5,95Zm44,0a6.5,6.5,0,1,1-6.5,6.5A6.5,6.5,0,0,1,400.5,95Zm-44,44a6.5,6.5,0,1,1-6.5,6.5A6.5,6.5,0,0,1,356.5,139Zm44,0a6.5,6.5,0,1,1-6.5,6.5A6.5,6.5,0,0,1,400.5,139Zm42-44a6.5,6.5,0,1,1-6.5,6.5A6.5,6.5,0,0,1,442.5,95Zm44,0a6.5,6.5,0,1,1-6.5,6.5A6.5,6.5,0,0,1,486.5,95Zm-44,44a6.5,6.5,0,1,1-6.5,6.5A6.5,6.5,0,0,1,442.5,139Zm44,0a6.5,6.5,0,1,1-6.5,6.5A6.5,6.5,0,0,1,486.5,139Zm-130,43a6.5,6.5,0,1,1-6.5,6.5A6.5,6.5,0,0,1,356.5,182Zm44,0a6.5,6.5,0,1,1-6.5,6.5A6.5,6.5,0,0,1,400.5,182Zm-44,44a6.5,6.5,0,1,1-6.5,6.5A6.5,6.5,0,0,1,356.5,226Zm44,0a6.5,6.5,0,1,1-6.5,6.5A6.5,6.5,0,0,1,400.5,226Zm42-44a6.5,6.5,0,1,1-6.5,6.5A6.5,6.5,0,0,1,442.5,182Zm44,0a6.5,6.5,0,1,1-6.5,6.5A6.5,6.5,0,0,1,486.5,182Zm-44,44a6.5,6.5,0,1,1-6.5,6.5A6.5,6.5,0,0,1,442.5,226Zm44,0a6.5,6.5,0,1,1-6.5,6.5A6.5,6.5,0,0,1,486.5,226Zm-130,44a6.5,6.5,0,1,1-6.5,6.5A6.5,6.5,0,0,1,356.5,270Zm44,0a6.5,6.5,0,1,1-6.5,6.5A6.5,6.5,0,0,1,400.5,270Zm-44,44a6.5,6.5,0,1,1-6.5,6.5A6.5,6.5,0,0,1,356.5,314Zm44,0a6.5,6.5,0,1,1-6.5,6.5A6.5,6.5,0,0,1,400.5,314Zm42-44a6.5,6.5,0,1,1-6.5,6.5A6.5,6.5,0,0,1,442.5,270Zm44,0a6.5,6.5,0,1,1-6.5,6.5A6.5,6.5,0,0,1,486.5,270Zm-44,44a6.5,6.5,0,1,1-6.5,6.5A6.5,6.5,0,0,1,442.5,314Zm44,0a6.5,6.5,0,1,1-6.5,6.5A6.5,6.5,0,0,1,486.5,314Zm-130,44a6.5,6.5,0,1,1-6.5,6.5A6.5,6.5,0,0,1,356.5,358Zm44,0a6.5,6.5,0,1,1-6.5,6.5A6.5,6.5,0,0,1,400.5,358Zm-44,44a6.5,6.5,0,1,1-6.5,6.5A6.5,6.5,0,0,1,356.5,402Zm44,0a6.5,6.5,0,1,1-6.5,6.5A6.5,6.5,0,0,1,400.5,402Zm42-44a6.5,6.5,0,1,1-6.5,6.5A6.5,6.5,0,0,1,442.5,358Zm44,0a6.5,6.5,0,1,1-6.5,6.5A6.5,6.5,0,0,1,486.5,358Zm-44,44a6.5,6.5,0,1,1-6.5,6.5A6.5,6.5,0,0,1,442.5,402Zm44,0a6.5,6.5,0,1,1-6.5,6.5A6.5,6.5,0,0,1,486.5,402Zm-130,44a6.5,6.5,0,1,1-6.5,6.5A6.5,6.5,0,0,1,356.5,446Zm44,0a6.5,6.5,0,1,1-6.5,6.5A6.5,6.5,0,0,1,400.5,446Zm-44,44a6.5,6.5,0,1,1-6.5,6.5A6.5,6.5,0,0,1,356.5,490Zm44,0a6.5,6.5,0,1,1-6.5,6.5A6.5,6.5,0,0,1,400.5,490Zm42-44a6.5,6.5,0,1,1-6.5,6.5A6.5,6.5,0,0,1,442.5,446Zm44,0a6.5,6.5,0,1,1-6.5,6.5A6.5,6.5,0,0,1,486.5,446Zm-44,44a6.5,6.5,0,1,1-6.5,6.5A6.5,6.5,0,0,1,442.5,490Zm44,0a6.5,6.5,0,1,1-6.5,6.5A6.5,6.5,0,0,1,486.5,490Zm-130,44a6.5,6.5,0,1,1-6.5,6.5A6.5,6.5,0,0,1,356.5,534Zm44,0a6.5,6.5,0,1,1-6.5,6.5A6.5,6.5,0,0,1,400.5,534Zm-44,44a6.5,6.5,0,1,1-6.5,6.5A6.5,6.5,0,0,1,356.5,578Zm44,0a6.5,6.5,0,1,1-6.5,6.5A6.5,6.5,0,0,1,400.5,578Zm42-44a6.5,6.5,0,1,1-6.5,6.5A6.5,6.5,0,0,1,442.5,534Zm44,0a6.5,6.5,0,1,1-6.5,6.5A6.5,6.5,0,0,1,486.5,534Zm-44,44a6.5,6.5,0,1,1-6.5,6.5A6.5,6.5,0,0,1,442.5,578Zm44,0a6.5,6.5,0,1,1-6.5,6.5A6.5,6.5,0,0,1,486.5,578Zm41-571a6.5,6.5,0,1,1-6.5,6.5A6.5,6.5,0,0,1,527.5,7Zm44,0a6.5,6.5,0,1,1-6.5,6.5A6.5,6.5,0,0,1,571.5,7Zm-44,44a6.5,6.5,0,1,1-6.5,6.5A6.5,6.5,0,0,1,527.5,51Zm44,0a6.5,6.5,0,1,1-6.5,6.5A6.5,6.5,0,0,1,571.5,51Zm42-44a6.5,6.5,0,1,1-6.5,6.5A6.5,6.5,0,0,1,613.5,7Zm44,0a6.5,6.5,0,1,1-6.5,6.5A6.5,6.5,0,0,1,657.5,7Zm-44,44a6.5,6.5,0,1,1-6.5,6.5A6.5,6.5,0,0,1,613.5,51Zm44,0a6.5,6.5,0,1,1-6.5,6.5A6.5,6.5,0,0,1,657.5,51Zm-130,44a6.5,6.5,0,1,1-6.5,6.5A6.5,6.5,0,0,1,527.5,95Zm44,0a6.5,6.5,0,1,1-6.5,6.5A6.5,6.5,0,0,1,571.5,95Zm-44,44a6.5,6.5,0,1,1-6.5,6.5A6.5,6.5,0,0,1,527.5,139Zm44,0a6.5,6.5,0,1,1-6.5,6.5A6.5,6.5,0,0,1,571.5,139Zm42-44a6.5,6.5,0,1,1-6.5,6.5A6.5,6.5,0,0,1,613.5,95Zm44,0a6.5,6.5,0,1,1-6.5,6.5A6.5,6.5,0,0,1,657.5,95Zm-44,44a6.5,6.5,0,1,1-6.5,6.5A6.5,6.5,0,0,1,613.5,139Zm44,0a6.5,6.5,0,1,1-6.5,6.5A6.5,6.5,0,0,1,657.5,139Zm-130,43a6.5,6.5,0,1,1-6.5,6.5A6.5,6.5,0,0,1,527.5,182Zm44,0a6.5,6.5,0,1,1-6.5,6.5A6.5,6.5,0,0,1,571.5,182Zm-44,44a6.5,6.5,0,1,1-6.5,6.5A6.5,6.5,0,0,1,527.5,226Zm44,0a6.5,6.5,0,1,1-6.5,6.5A6.5,6.5,0,0,1,571.5,226Zm42-44a6.5,6.5,0,1,1-6.5,6.5A6.5,6.5,0,0,1,613.5,182Zm44,0a6.5,6.5,0,1,1-6.5,6.5A6.5,6.5,0,0,1,657.5,182Zm-44,44a6.5,6.5,0,1,1-6.5,6.5A6.5,6.5,0,0,1,613.5,226Zm44,0a6.5,6.5,0,1,1-6.5,6.5A6.5,6.5,0,0,1,657.5,226Zm-130,44a6.5,6.5,0,1,1-6.5,6.5A6.5,6.5,0,0,1,527.5,270Zm44,0a6.5,6.5,0,1,1-6.5,6.5A6.5,6.5,0,0,1,571.5,270Zm-44,44a6.5,6.5,0,1,1-6.5,6.5A6.5,6.5,0,0,1,527.5,314Zm44,0a6.5,6.5,0,1,1-6.5,6.5A6.5,6.5,0,0,1,571.5,314Zm42-44a6.5,6.5,0,1,1-6.5,6.5A6.5,6.5,0,0,1,613.5,270Zm44,0a6.5,6.5,0,1,1-6.5,6.5A6.5,6.5,0,0,1,657.5,270Zm-44,44a6.5,6.5,0,1,1-6.5,6.5A6.5,6.5,0,0,1,613.5,314Zm44,0a6.5,6.5,0,1,1-6.5,6.5A6.5,6.5,0,0,1,657.5,314Zm-130,44a6.5,6.5,0,1,1-6.5,6.5A6.5,6.5,0,0,1,527.5,358Zm44,0a6.5,6.5,0,1,1-6.5,6.5A6.5,6.5,0,0,1,571.5,358Zm-44,44a6.5,6.5,0,1,1-6.5,6.5A6.5,6.5,0,0,1,527.5,402Zm44,0a6.5,6.5,0,1,1-6.5,6.5A6.5,6.5,0,0,1,571.5,402Zm42-44a6.5,6.5,0,1,1-6.5,6.5A6.5,6.5,0,0,1,613.5,358Zm44,0a6.5,6.5,0,1,1-6.5,6.5A6.5,6.5,0,0,1,657.5,358Zm-44,44a6.5,6.5,0,1,1-6.5,6.5A6.5,6.5,0,0,1,613.5,402Zm44,0a6.5,6.5,0,1,1-6.5,6.5A6.5,6.5,0,0,1,657.5,402Zm-130,44a6.5,6.5,0,1,1-6.5,6.5A6.5,6.5,0,0,1,527.5,446Zm44,0a6.5,6.5,0,1,1-6.5,6.5A6.5,6.5,0,0,1,571.5,446Zm-44,44a6.5,6.5,0,1,1-6.5,6.5A6.5,6.5,0,0,1,527.5,490Zm44,0a6.5,6.5,0,1,1-6.5,6.5A6.5,6.5,0,0,1,571.5,490Zm42-44a6.5,6.5,0,1,1-6.5,6.5A6.5,6.5,0,0,1,613.5,446Zm44,0a6.5,6.5,0,1,1-6.5,6.5A6.5,6.5,0,0,1,657.5,446Zm-44,44a6.5,6.5,0,1,1-6.5,6.5A6.5,6.5,0,0,1,613.5,490Zm44,0a6.5,6.5,0,1,1-6.5,6.5A6.5,6.5,0,0,1,657.5,490Zm-130,44a6.5,6.5,0,1,1-6.5,6.5A6.5,6.5,0,0,1,527.5,534Zm44,0a6.5,6.5,0,1,1-6.5,6.5A6.5,6.5,0,0,1,571.5,534Zm-44,44a6.5,6.5,0,1,1-6.5,6.5A6.5,6.5,0,0,1,527.5,578Zm44,0a6.5,6.5,0,1,1-6.5,6.5A6.5,6.5,0,0,1,571.5,578Zm42-44a6.5,6.5,0,1,1-6.5,6.5A6.5,6.5,0,0,1,613.5,534Zm44,0a6.5,6.5,0,1,1-6.5,6.5A6.5,6.5,0,0,1,657.5,534Zm-44,44a6.5,6.5,0,1,1-6.5,6.5A6.5,6.5,0,0,1,613.5,578Zm44,0a6.5,6.5,0,1,1-6.5,6.5A6.5,6.5,0,0,1,657.5,578Zm43-571a6.5,6.5,0,1,1-6.5,6.5A6.5,6.5,0,0,1,700.5,7Zm0,44a6.5,6.5,0,1,1-6.5,6.5A6.5,6.5,0,0,1,700.5,51Zm42-44a6.5,6.5,0,1,1-6.5,6.5A6.5,6.5,0,0,1,742.5,7Zm44,0a6.5,6.5,0,1,1-6.5,6.5A6.5,6.5,0,0,1,786.5,7Zm-44,44a6.5,6.5,0,1,1-6.5,6.5A6.5,6.5,0,0,1,742.5,51Zm44,0a6.5,6.5,0,1,1-6.5,6.5A6.5,6.5,0,0,1,786.5,51Zm-86,44a6.5,6.5,0,1,1-6.5,6.5A6.5,6.5,0,0,1,700.5,95Zm0,44a6.5,6.5,0,1,1-6.5,6.5A6.5,6.5,0,0,1,700.5,139Zm42-44a6.5,6.5,0,1,1-6.5,6.5A6.5,6.5,0,0,1,742.5,95Zm44,0a6.5,6.5,0,1,1-6.5,6.5A6.5,6.5,0,0,1,786.5,95Zm-44,44a6.5,6.5,0,1,1-6.5,6.5A6.5,6.5,0,0,1,742.5,139Zm44,0a6.5,6.5,0,1,1-6.5,6.5A6.5,6.5,0,0,1,786.5,139Zm-86,43a6.5,6.5,0,1,1-6.5,6.5A6.5,6.5,0,0,1,700.5,182Zm0,44a6.5,6.5,0,1,1-6.5,6.5A6.5,6.5,0,0,1,700.5,226Zm42-44a6.5,6.5,0,1,1-6.5,6.5A6.5,6.5,0,0,1,742.5,182Zm44,0a6.5,6.5,0,1,1-6.5,6.5A6.5,6.5,0,0,1,786.5,182Zm-44,44a6.5,6.5,0,1,1-6.5,6.5A6.5,6.5,0,0,1,742.5,226Zm44,0a6.5,6.5,0,1,1-6.5,6.5A6.5,6.5,0,0,1,786.5,226Zm-86,44a6.5,6.5,0,1,1-6.5,6.5A6.5,6.5,0,0,1,700.5,270Zm0,44a6.5,6.5,0,1,1-6.5,6.5A6.5,6.5,0,0,1,700.5,314Zm42-44a6.5,6.5,0,1,1-6.5,6.5A6.5,6.5,0,0,1,742.5,270Zm44,0a6.5,6.5,0,1,1-6.5,6.5A6.5,6.5,0,0,1,786.5,270Zm-44,44a6.5,6.5,0,1,1-6.5,6.5A6.5,6.5,0,0,1,742.5,314Zm44,0a6.5,6.5,0,1,1-6.5,6.5A6.5,6.5,0,0,1,786.5,314Zm-86,44a6.5,6.5,0,1,1-6.5,6.5A6.5,6.5,0,0,1,700.5,358Zm0,44a6.5,6.5,0,1,1-6.5,6.5A6.5,6.5,0,0,1,700.5,402Zm42-44a6.5,6.5,0,1,1-6.5,6.5A6.5,6.5,0,0,1,742.5,358Zm44,0a6.5,6.5,0,1,1-6.5,6.5A6.5,6.5,0,0,1,786.5,358Zm-44,44a6.5,6.5,0,1,1-6.5,6.5A6.5,6.5,0,0,1,742.5,402Zm44,0a6.5,6.5,0,1,1-6.5,6.5A6.5,6.5,0,0,1,786.5,402Zm-86,44a6.5,6.5,0,1,1-6.5,6.5A6.5,6.5,0,0,1,700.5,446Zm0,44a6.5,6.5,0,1,1-6.5,6.5A6.5,6.5,0,0,1,700.5,490Zm42-44a6.5,6.5,0,1,1-6.5,6.5A6.5,6.5,0,0,1,742.5,446Zm44,0a6.5,6.5,0,1,1-6.5,6.5A6.5,6.5,0,0,1,786.5,446Zm-44,44a6.5,6.5,0,1,1-6.5,6.5A6.5,6.5,0,0,1,742.5,490Zm44,0a6.5,6.5,0,1,1-6.5,6.5A6.5,6.5,0,0,1,786.5,490Zm-86,44a6.5,6.5,0,1,1-6.5,6.5A6.5,6.5,0,0,1,700.5,534Zm0,44a6.5,6.5,0,1,1-6.5,6.5A6.5,6.5,0,0,1,700.5,578Zm42-44a6.5,6.5,0,1,1-6.5,6.5A6.5,6.5,0,0,1,742.5,534Zm44,0a6.5,6.5,0,1,1-6.5,6.5A6.5,6.5,0,0,1,786.5,534Zm-44,44a6.5,6.5,0,1,1-6.5,6.5A6.5,6.5,0,0,1,742.5,578Zm44,0a6.5,6.5,0,1,1-6.5,6.5A6.5,6.5,0,0,1,786.5,578Z" transform="translate(-6 -7)"/>
</svg>
