<svg id="b8be6891-8c6c-471d-9cef-5646484caaf2" xmlns="http://www.w3.org/2000/svg" viewBox="0 0 845.25 577.09"><defs><style>.cls-1,.cls-11{fill:#6c63ff;}.cls-1,.cls-2,.cls-7{opacity:0.1;}.cls-1,.cls-11,.cls-2,.cls-7{isolation:isolate;}.cls-2{fill:#c1cee5;}.cls-3{fill:#f2f2f2;}.cls-4{fill:#3f3d56;}.cls-5{fill:#ffb9b9;}.cls-6{fill:#575a89;}.cls-8{fill:#2f2e41;}.cls-9{fill:#9f616a;}.cls-10{fill:#575a88;}.cls-11{opacity:0.4;}.cls-12{fill:#535461;}</style></defs><title>meeting</title><ellipse class="cls-1" cx="417.88" cy="547.21" rx="243.32" ry="29.88"/><path class="cls-2" d="M126.95,152.58c-18,21-22.51,47.68-22.75,73.24-.17,18,2.29,37.57,17.33,50.86,19.8,17.49,57.82,20.93,67.64,43.28,8.7,19.86-11.54,39.83-31,53.85S116.39,405,120,425.86c2.3,13.32,14.93,23.79,27.53,32.57,23.95,16.73,50.86,31.37,81.21,38.49,55.05,12.9,114.52-.46,166.1-20.68,31.76-12.45,68.63-27.73,100.16-14.92,8.33,3.38,15.39,8.49,23.07,12.72,22.32,12.23,49.58,16.73,76.11,20.55,38.88,5.62,79.75,10.31,117.21.17s69.84-39.79,64.11-71.42c-5.41-29.8-39.83-49.22-67.27-69.57-9.68-7.18-19.53-16.7-17.12-27.15,1.91-8.29,10.92-14.05,19-19.41,42.27-28.34,73.34-67.45,87.62-110.35,6.75-20.24,9.18-43.56-5.87-60.62-12.14-13.77-32.95-20.38-52.74-25.82-36.72-10.1-74.36-18.63-113-20.93s-78.52,2.09-112.81,16.66c-16.44,7-31.35,16.2-48,22.94-47.14,19.11-102.69,16.54-155.27,13.53-18.79-1.08-38.42-3-54.73-11.2-14.05-7.08-22.09-12.15-39.49-12.94C181.76,116.92,146.48,129.68,126.95,152.58Z" transform="translate(-104.19 -88.91)"/><path class="cls-3" d="M940,353.94c-24.2-95.17-107.83-163.87-206-166.62-51.89-1.46-106.5,15.75-146.26,76-71.07,107.66,4.37,182.06,57,217.42a329.1,329.1,0,0,1,68,61.14C748.28,584,816.63,636.4,898,554.32,957,494.83,956.14,417.34,940,353.94Z" transform="translate(-104.19 -88.91)"/><ellipse class="cls-4" cx="614.4" cy="519.54" rx="219.17" ry="27.68"/><path class="cls-5" d="M679.63,407.1s-41.12,3.43-27.41,13.71S679.63,414,679.63,414Z" transform="translate(-104.19 -88.91)"/><path class="cls-6" d="M741.31,351.13l1-3.75s-13.56,24.31-14.71,26.6-20.56,21.7-22.85,25.13a23.34,23.34,0,0,1-5.71,5.71h-21.7s-4.57,14.85,2.28,16,28.56,5.71,33.13,5.71,33.13-26.27,33.13-26.27Z" transform="translate(-104.19 -88.91)"/><polygon class="cls-4" points="641.7 427.85 634.84 523.8 641.7 523.8 649.69 425.57 641.7 427.85"/><polygon class="cls-4" points="725.08 416.43 718.23 512.38 725.08 512.38 733.08 414.14 725.08 416.43"/><polygon class="cls-4" points="737.65 427.85 730.79 523.8 737.65 523.8 745.64 425.57 737.65 427.85"/><polygon class="cls-4" points="631.42 418.71 624.56 514.66 631.42 514.66 639.41 416.43 631.42 418.71"/><polygon class="cls-4" points="763.92 296.49 744.5 435.85 629.13 431.28 629.91 418.42 631.42 393.58 720.51 398.15 735.36 296.49 763.92 296.49"/><path class="cls-7" d="M868.11,385.4,848.69,524.76l-115.37-4.57.78-12.86c24.08.93,105.45-4.27,105.45-4.27,0-18.23,16-89.6,22.48-117.65Z" transform="translate(-104.19 -88.91)"/><path class="cls-5" d="M665.93,554.45s-3.43,26.27-10.28,30.84,28.56,10.28,28.56,10.28l2.28-34.27Z" transform="translate(-104.19 -88.91)"/><path class="cls-5" d="M781.29,565.88s5.71,6.85,6.85,11.42,18.28,6.85,18.28,6.85L819,570.45s-16-13.71-20.56-13.71S781.29,565.88,781.29,565.88Z" transform="translate(-104.19 -88.91)"/><circle class="cls-5" cx="646.84" cy="213.68" r="27.41"/><path class="cls-5" d="M743.6,321.43s13.71,26.27,11.42,30.84,29.7-21.7,29.7-21.7-11.42-18.28-11.42-24S743.6,321.43,743.6,321.43Z" transform="translate(-104.19 -88.91)"/><path class="cls-8" d="M756.16,456.22s-88-13.71-91.38,18.28-16,73.1-17.13,76.53,37.69,22.85,42.26,16,12.56-61.68,10.28-66.25-3.43-10.28,1.14-9.14,54.83,11.42,65.11,8S803,450.51,803,450.51Z" transform="translate(-104.19 -88.91)"/><path class="cls-7" d="M756.16,456.22s-88-13.71-91.38,18.28-16,73.1-17.13,76.53,37.69,22.85,42.26,16,12.56-61.68,10.28-66.25-3.43-10.28,1.14-9.14,54.83,11.42,65.11,8S803,450.51,803,450.51Z" transform="translate(-104.19 -88.91)"/><path class="cls-8" d="M753.88,449.37l3.43,28.56S702.48,498.48,723,531.61,766.44,583,766.44,583,803,562.45,803,556.74,758.45,519,764.16,519s88-4.57,70.82-50.26S753.88,449.37,753.88,449.37Z" transform="translate(-104.19 -88.91)"/><path class="cls-8" d="M664.78,586.44s-9.14-10.28-9.14-8-26.27,16-30.84,17.13-11.42,3.43-2.28,6.85,67.39,4.57,67.39,2.28,2.28-24-2.28-21.7S665.93,591,664.78,586.44Z" transform="translate(-104.19 -88.91)"/><path class="cls-8" d="M799.57,578.44s-12.56-3.43-13.71,0-2.28,17.13-12.56,21.7-13.71,11.42,0,12.56,51.4-25.13,51.4-29.7-4.57-18.28-6.85-17.13S809.85,577.3,799.57,578.44Z" transform="translate(-104.19 -88.91)"/><path class="cls-6" d="M784.72,323.72s-4.28-11.43-11.85-4.57-22.42,24-22.42,24-9.14,3.43-12.56,9.14-3.43,43.41,3.43,56,6.85,34.27,9.14,40,0,11.42,8,11.42-4.57-9.14,21.7,0,56,20.56,58.26,12.56-3.43-12.56,0-16,0-4.57-2.28-12.56-4.57-9.14-5.71-19.42,0-20.56-2.28-25.13-2.28-11.42-2.28-22.85S819,342,806.42,335.14,784.72,323.72,784.72,323.72Z" transform="translate(-104.19 -88.91)"/><path class="cls-8" d="M724.26,272.1c6.37-6.22,13.06-12.63,21.54-15.34,11.31-3.61,23.93.18,33.67,7a17.31,17.31,0,0,1,5.42,5.36,19.74,19.74,0,0,1,1.93,6.74c1.29,8.17,2.35,16.46,1.72,24.71s-3.07,16.55-8.15,23.08a47.66,47.66,0,0,1-10.15-16.73,13.28,13.28,0,0,0-2.27-4.67c-1.17-1.3-3.23-2-4.69-1-2,1.31-1.78,4.81-3.93,5.93a3.74,3.74,0,0,1-2.35.25c-5.61-1-7.56-7.84-11.21-12.21-5.38-6.44-12.92-6-20.27-7.88C717,285.12,719.08,277.16,724.26,272.1Z" transform="translate(-104.19 -88.91)"/><path class="cls-5" d="M719.1,417s-37.86-10-40.95-1.4,32.32,16.63,32.32,16.63h14.85Z" transform="translate(-104.19 -88.91)"/><path class="cls-6" d="M798.43,342s-17.13,12.56-21.7,30.84-8,37.69-8,37.69l-52.54,6.85s-4.57,18.28,2.28,19.42,58.26,4.57,66.25,0,35.41-61.68,34.27-67.39S815.56,343.14,798.43,342Z" transform="translate(-104.19 -88.91)"/><polygon class="cls-4" points="183.87 421.51 191.87 519.75 198.72 519.75 191.87 423.8 183.87 421.51"/><polygon class="cls-4" points="100.49 410.09 108.48 508.33 115.34 508.33 108.48 412.38 100.49 410.09"/><polygon class="cls-4" points="87.92 421.51 95.92 519.75 102.77 519.75 95.92 423.8 87.92 421.51"/><polygon class="cls-4" points="194.15 412.38 202.15 510.61 209 510.61 202.15 414.66 194.15 412.38"/><polygon class="cls-4" points="98.2 292.44 113.05 394.1 202.15 389.53 203.66 414.36 204.43 427.23 89.06 431.8 69.65 292.44 98.2 292.44"/><path class="cls-7" d="M179.91,381.35c6.47,28.05,22.48,99.42,22.48,117.65,0,0,81.37,5.2,105.45,4.27l.78,12.86L193.25,520.7,173.83,381.35Z" transform="translate(-104.19 -88.91)"/><ellipse class="cls-4" cx="197.86" cy="527.68" rx="169.25" ry="26.09"/><path class="cls-9" d="M313.75,431.27s27.43,11.37,18.73,18.06-26.76-8-26.09-10-2.68-6.69-2.68-6.69Z" transform="translate(-104.19 -88.91)"/><path class="cls-10" d="M289.67,341.62l8.7,8,2,23.41,6.69,24.75s11.37,23.41,9.37,28.1,2,6,2,6l-15.39,6s-16.72-18.73-16.72-22.75S289.67,341.62,289.67,341.62Z" transform="translate(-104.19 -88.91)"/><path class="cls-7" d="M289.67,341.62l8.7,8,2,23.41,6.69,24.75s11.37,23.41,9.37,28.1,2,6,2,6l-15.39,6s-16.72-18.73-16.72-22.75S289.67,341.62,289.67,341.62Z" transform="translate(-104.19 -88.91)"/><path class="cls-10" d="M372,582.46s-3.34,15.39-4,16.72,12.71,6,12.71,6l16.06-11.37S390,579.12,390,576.44Z" transform="translate(-104.19 -88.91)"/><path class="cls-8" d="M284.32,432.61,289,438s97,12,99,30.77,16.06,107,8,109.71-28.77,12.71-28.77,7.36-13.38-78.94-10.7-92.32c0,0-115.73-14.72-118.41-31.44S240.83,438,240.83,438Z" transform="translate(-104.19 -88.91)"/><path class="cls-7" d="M284.32,432.61,289,438s97,12,99,30.77,16.06,107,8,109.71-28.77,12.71-28.77,7.36-13.38-78.94-10.7-92.32c0,0-115.73-14.72-118.41-31.44S240.83,438,240.83,438Z" transform="translate(-104.19 -88.91)"/><path class="cls-8" d="M370.62,597.85s-2.68-6-4-4-6,25.42-1.34,25.42,47.5,10.7,53.52,9.37,17.39.67,16.06-6-8-7.36-8-7.36-24.75-14.72-26.09-22.08-8.7-3.34-8.7-3.34v4.68S378,605.21,370.62,597.85Z" transform="translate(-104.19 -88.91)"/><path class="cls-9" d="M243.51,290.78s4.68,22.75-5.35,24.75,12.71,15.39,12.71,15.39l14.72,8,10.7-10.7s-9.7-19.74-2.34-34.45S243.51,290.78,243.51,290.78Z" transform="translate(-104.19 -88.91)"/><path class="cls-9" d="M276.29,328.25l-10.7,10.7-14.72-8s-22.75-13.38-12.71-15.39c6.46-1.29,6.82-11.17,6.26-18a62.21,62.21,0,0,0-.91-6.71s37.8-11.71,30.44,3a25.66,25.66,0,0,0-2.3,7.2C269.39,314.22,276.29,328.25,276.29,328.25Z" transform="translate(-104.19 -88.91)"/><polygon class="cls-10" points="209.57 512.95 209.57 528.34 234.99 528.34 237 522.32 234.32 506.26 209.57 512.95"/><path class="cls-8" d="M208.72,446s0,39.47,16.06,40.81,73.59,8.7,73.59,8.7,3.34,65.56,9.37,87,.67,22.75,6,24.08,28.1-3.34,27.43-8-3.34-123.09-3.34-123.09,6-25.42-74.26-37.46Z" transform="translate(-104.19 -88.91)"/><path class="cls-8" d="M315.76,612.56s-4-8.7-4.68-6-8.7,26.09-.67,28.1,33.45,12.71,50.17,12,18.73-1.34,18.73-1.34,4.68-6.69-1.34-10.7-30.77-27.43-32.11-30.1-11.37-4.68-11.37,0S320.44,618.59,315.76,612.56Z" transform="translate(-104.19 -88.91)"/><path class="cls-7" d="M273.95,293.79a25.66,25.66,0,0,0-2.3,7.2c-3.33,2-5.56,1.5-9.74,1.5-6.2,0-8.7-7.93-12.71-12-.31-3.82-5.69.33-5.69.33S281.31,279.07,273.95,293.79Z" transform="translate(-104.19 -88.91)"/><circle class="cls-9" cx="156.05" cy="191.17" r="22.08"/><path class="cls-10" d="M298.37,349.65S295,373.74,293,382.43s-4.68,48.84-6,54.19-9.37,6.69-25.42,4.68a30.18,30.18,0,0,0-3-.23c-9.89-.31-21.2,3.39-31.67,6.29-6,1.67-11.77,3.08-16.8,3.3-7.63.35-9.86-8.11-9.6-17.26.25-8.52,2.66-17.65,4.92-20.87,4.06-5.81.07-57.94,1.57-75.13h0c.23-2.62.58-4.43,1.11-5.14,4-5.35,30.1-18.73,33-18.19s27.85,16.18,27.85,16.18c6,0,5.83-6.53,5.83-6.53S279,331.59,287,333.6,298.37,349.65,298.37,349.65Z" transform="translate(-104.19 -88.91)"/><path class="cls-9" d="M253.65,436.38s43.09,1.37,35.54,6.49-41,9.8-41.67,3.11S253.65,436.38,253.65,436.38Z" transform="translate(-104.19 -88.91)"/><path class="cls-7" d="M258.54,441.08c.14,2.57-6.77,8.36-9,12.27-1.24,2.17-10.82-.69-22.67-6a232.41,232.41,0,0,1-26.4-14c.25-8.52,2.66-17.65,4.92-20.87,4.06-5.81.07-57.94,1.57-75.13h0a7.42,7.42,0,0,1,1.11-.45h8c27.43,12.71-4,67.57-4,67.57s41.48,34.12,45.49,35.46A1.2,1.2,0,0,1,258.54,441.08Z" transform="translate(-104.19 -88.91)"/><path class="cls-10" d="M216.08,332.93h-8s-7.36,2-13.38,15.39-28.1,54.86-8.7,70.91,60.88,34.79,63.55,30.1,12-12,8-13.38-45.49-35.46-45.49-35.46S243.51,345.64,216.08,332.93Z" transform="translate(-104.19 -88.91)"/><path class="cls-8" d="M256.84,269.81s1-13.41,12.92-7.94,11.17-9.6,7.56-12.27-3.5-3.32-16.71-1.54-38.86,4.8-30.56,31.36,15.8,19.73,15.8,19.73-6.59-23.9.09-19.35l6.68,4.55,3.52-.75Z" transform="translate(-104.19 -88.91)"/><circle class="cls-11" cx="57.32" cy="206.04" r="14.66"/><rect class="cls-12" x="256.17" y="334.22" width="330.21" height="10.99"/><polygon class="cls-12" points="375.31 334.22 286.59 551.57 301.18 551.46 389.84 334.22 375.31 334.22"/><polygon class="cls-12" points="465.15 334.33 451.86 334.33 540.48 551.46 552.49 551.57 465.15 334.33"/><circle class="cls-11" cx="485.19" cy="140.61" r="11.79"/><circle class="cls-11" cx="404.51" cy="479.56" r="7.33"/></svg>